<svg id="visual" viewBox="0 0 2048 1080" width="2048" height="1080" xmlns="http://www.w3.org/2000/svg" xmlns:xlink="http://www.w3.org/1999/xlink" version="1.1"><path d="M0 777L48.8 780C97.7 783 195.3 789 292.8 800.8C390.3 812.7 487.7 830.3 585.2 835.7C682.7 841 780.3 834 877.8 807.8C975.3 781.7 1072.7 736.3 1170.2 716.3C1267.7 696.3 1365.3 701.7 1462.8 715C1560.3 728.3 1657.7 749.7 1755.2 746C1852.7 742.3 1950.3 713.7 1999.2 699.3L2048 685L2048 1081L1999.2 1081C1950.3 1081 1852.7 1081 1755.2 1081C1657.7 1081 1560.3 1081 1462.8 1081C1365.3 1081 1267.7 1081 1170.2 1081C1072.7 1081 975.3 1081 877.8 1081C780.3 1081 682.7 1081 585.2 1081C487.7 1081 390.3 1081 292.8 1081C195.3 1081 97.7 1081 48.8 1081L0 1081Z" fill="#0066FF" stroke-linecap="round" stroke-linejoin="miter"></path></svg>